<?xml version="1.0" standalone="no"?><!DOCTYPE svg PUBLIC "-//W3C//DTD SVG 1.1//EN" "http://www.w3.org/Graphics/SVG/1.1/DTD/svg11.dtd"><svg t="1629426603106" class="icon" viewBox="0 0 1024 1024" version="1.1" xmlns="http://www.w3.org/2000/svg" p-id="1889" width="128" height="128" xmlns:xlink="http://www.w3.org/1999/xlink"><defs><style type="text/css"></style></defs><path d="M837.12 949.76h-650.752c-31.744 0-57.856-27.648-57.856-61.952V135.68c0-33.792 25.6-61.952 57.856-61.952h650.752c31.744 0 57.856 27.648 57.856 61.952v752.128c0 34.304-25.6 61.952-57.856 61.952z m-649.216-62.976h648.192V137.216h-648.192v749.568z" fill="" p-id="1890"></path><path d="M336.384 206.336l68.608 172.032h-28.672l-17.92-46.08h-76.288l-17.92 46.08h-28.672l68.608-172.032h32.256z m-15.36 22.528h-1.024c-1.536 5.12-3.072 10.24-5.12 14.848-0.512 1.024-9.216 23.552-26.112 67.072h62.976c-16.896-43.52-25.6-66.048-26.112-67.072 0-0.512-0.512-1.536-1.024-3.072-2.048-6.656-3.584-10.752-3.584-11.776z m172.544 84.48h-43.52v64.512h-27.136v-172.032h72.704c38.4 1.536 58.88 18.944 60.928 51.712 0 36.864-20.992 55.296-62.976 55.808z m-3.072-86.016h-40.448v65.024h40.448c25.6-0.512 38.912-11.776 39.424-33.28-1.536-20.48-14.336-31.232-39.424-31.744z m96.768 150.528v-172.032h26.112v172.032h-26.112z m96.768 363.008h-76.8c-17.92 0-32.768-14.848-32.768-32.768v-253.44c0-17.92 14.848-32.768 32.768-32.768h76.8c17.92 0 32.768 14.848 32.768 32.768v253.44c0 17.92-14.848 32.768-32.768 32.768z" fill="" p-id="1891"></path><path d="M658.944 548.352h-27.136c-13.824 0-24.576-10.752-24.576-24.576V496.64c0-13.824 10.752-24.576 24.576-24.576h27.136c13.824 0 24.576 10.752 24.576 24.576v27.136c0 13.824-10.752 24.576-24.576 24.576z" fill="#FFFFFF" p-id="1892"></path><path d="M647.168 627.712c-6.656 0-12.288-5.632-12.288-12.288v-78.848c0-6.656 5.632-12.288 12.288-12.288 6.656 0 12.288 5.632 12.288 12.288v78.848c0 6.656-5.632 12.288-12.288 12.288z" fill="#FFFFFF" p-id="1893"></path></svg>